<?xml version="1.0" encoding="UTF-8" standalone="no"?>
<!DOCTYPE svg PUBLIC "-//W3C//DTD SVG 1.1//EN"
 "http://www.w3.org/Graphics/SVG/1.1/DTD/svg11.dtd">
<!-- Generated by graphviz version 2.32.0 (20130802.0446)
 -->
<!-- Title: RecoveryStackFrame Pages: 1 -->
<svg width="1581pt" height="1712pt"
 viewBox="0.00 0.00 1581.00 1712.00" xmlns="http://www.w3.org/2000/svg" xmlns:xlink="http://www.w3.org/1999/xlink">
<g id="graph0" class="graph" transform="scale(1 1) rotate(0) translate(4 1708)">
<title>RecoveryStackFrame</title>
<polygon fill="white" stroke="white" points="-4,5 -4,-1708 1578,-1708 1578,5 -4,5"/>
<!-- AttributeArguments_Rule_3_1 -->
<g id="node1" class="node"><title>AttributeArguments_Rule_3_1</title>
<polygon fill="aquamarine" stroke="aquamarine" points="686.25,-1302 459.75,-1302 459.75,-1264 686.25,-1264 686.25,-1302"/>
<text text-anchor="middle" x="573" y="-1286.8" font-family="Times New Roman,serif" font-size="14.00">AttributeArguments P=3 F=1 T=Rule</text>
<text text-anchor="middle" x="573" y="-1271.8" font-family="Times New Roman,serif" font-size="14.00"> 0:&#39;(&#39; 1:s 2:ArgumentList 3:&#39;)&#39; 4:s</text>
</g>
<!-- Attribute_Rule_2_3 -->
<g id="node2" class="node"><title>Attribute_Rule_2_3</title>
<polygon fill="none" stroke="black" points="902,-1227.5 734,-1227.5 734,-1174.5 902,-1174.5 902,-1227.5"/>
<text text-anchor="middle" x="818" y="-1212.3" font-family="Times New Roman,serif" font-size="14.00">Attribute P=2 F=3 T=Rule</text>
<text text-anchor="middle" x="818" y="-1197.3" font-family="Times New Roman,serif" font-size="14.00"> 0:QualifiedIdentifier 1:s</text>
<text text-anchor="middle" x="818" y="-1182.3" font-family="Times New Roman,serif" font-size="14.00"> &#160;2:(3:AttributeArguments)?</text>
</g>
<!-- AttributeArguments_Rule_3_1&#45;&gt;Attribute_Rule_2_3 -->
<g id="edge1" class="edge"><title>AttributeArguments_Rule_3_1&#45;&gt;Attribute_Rule_2_3</title>
<path fill="none" stroke="black" d="M638.176,-1260.72C669.366,-1250.53 706.958,-1238.26 739.689,-1227.57"/>
<polygon fill="black" stroke="black" points="636.708,-1257.52 628.288,-1263.95 638.881,-1264.17 636.708,-1257.52"/>
</g>
<!-- Attribute_Rule_2_2 -->
<g id="node3" class="node"><title>Attribute_Rule_2_2</title>
<polygon fill="none" stroke="black" points="902,-1137.5 734,-1137.5 734,-1084.5 902,-1084.5 902,-1137.5"/>
<text text-anchor="middle" x="818" y="-1122.3" font-family="Times New Roman,serif" font-size="14.00">Attribute P=2 F=2 T=Rule</text>
<text text-anchor="middle" x="818" y="-1107.3" font-family="Times New Roman,serif" font-size="14.00"> 0:QualifiedIdentifier 1:s</text>
<text text-anchor="middle" x="818" y="-1092.3" font-family="Times New Roman,serif" font-size="14.00"> &#160;2:(3:AttributeArguments)?</text>
</g>
<!-- Attribute_Rule_2_3&#45;&gt;Attribute_Rule_2_2 -->
<g id="edge2" class="edge"><title>Attribute_Rule_2_3&#45;&gt;Attribute_Rule_2_2</title>
<path fill="none" stroke="black" d="M818,-1164.02C818,-1155.22 818,-1145.96 818,-1137.74"/>
<polygon fill="black" stroke="black" points="814.5,-1164.07 818,-1174.07 821.5,-1164.07 814.5,-1164.07"/>
</g>
<!-- AttributeList_ListBody_1_1 -->
<g id="node4" class="node"><title>AttributeList_ListBody_1_1</title>
<polygon fill="none" stroke="black" points="924.25,-1048 711.75,-1048 711.75,-1010 924.25,-1010 924.25,-1048"/>
<text text-anchor="middle" x="818" y="-1032.8" font-family="Times New Roman,serif" font-size="14.00">AttributeList P=1 F=1 T=ListBody</text>
<text text-anchor="middle" x="818" y="-1017.8" font-family="Times New Roman,serif" font-size="14.00"> 0:(1:Attribute; 2:&#39;,&#39; 3:s ; ?)*</text>
</g>
<!-- Attribute_Rule_2_2&#45;&gt;AttributeList_ListBody_1_1 -->
<g id="edge3" class="edge"><title>Attribute_Rule_2_2&#45;&gt;AttributeList_ListBody_1_1</title>
<path fill="none" stroke="black" d="M818,-1074.04C818,-1065.16 818,-1056 818,-1048.35"/>
<polygon fill="black" stroke="black" points="814.5,-1074.25 818,-1084.25 821.5,-1074.25 814.5,-1074.25"/>
</g>
<!-- AttributeList_Rule_1_0 -->
<g id="node5" class="node"><title>AttributeList_Rule_1_0</title>
<polygon fill="none" stroke="black" points="911.25,-974 724.75,-974 724.75,-936 911.25,-936 911.25,-974"/>
<text text-anchor="middle" x="818" y="-958.8" font-family="Times New Roman,serif" font-size="14.00">AttributeList P=1 F=0 T=Rule</text>
<text text-anchor="middle" x="818" y="-943.8" font-family="Times New Roman,serif" font-size="14.00"> 0:(1:Attribute; 2:&#39;,&#39; 3:s ; ?)*</text>
</g>
<!-- AttributeList_ListBody_1_1&#45;&gt;AttributeList_Rule_1_0 -->
<g id="edge4" class="edge"><title>AttributeList_ListBody_1_1&#45;&gt;AttributeList_Rule_1_0</title>
<path fill="none" stroke="black" d="M818,-999.573C818,-991.108 818,-982.059 818,-974.413"/>
<polygon fill="black" stroke="black" points="814.5,-999.831 818,-1009.83 821.5,-999.831 814.5,-999.831"/>
</g>
<!-- AttributeSection_Rule_1_4 -->
<g id="node6" class="node"><title>AttributeSection_Rule_1_4</title>
<polygon fill="none" stroke="black" points="978,-899.5 658,-899.5 658,-846.5 978,-846.5 978,-899.5"/>
<text text-anchor="middle" x="818" y="-884.3" font-family="Times New Roman,serif" font-size="14.00">AttributeSection P=1 F=4 T=Rule</text>
<text text-anchor="middle" x="818" y="-869.3" font-family="Times New Roman,serif" font-size="14.00"> 0:&#39;[&#39; 1:s</text>
<text text-anchor="middle" x="818" y="-854.3" font-family="Times New Roman,serif" font-size="14.00"> &#160;2:(3:AttributeTargetSpecifier)? 4:AttributeList 5:&#39;]&#39; 6:s</text>
</g>
<!-- AttributeList_Rule_1_0&#45;&gt;AttributeSection_Rule_1_4 -->
<g id="edge5" class="edge"><title>AttributeList_Rule_1_0&#45;&gt;AttributeSection_Rule_1_4</title>
<path fill="none" stroke="black" d="M818,-925.655C818,-917.185 818,-907.951 818,-899.663"/>
<polygon fill="black" stroke="black" points="814.5,-925.847 818,-935.847 821.5,-925.847 814.5,-925.847"/>
</g>
<!-- Class_ListBody_0_1 -->
<g id="node7" class="node"><title>Class_ListBody_0_1</title>
<polygon fill="none" stroke="black" points="312.25,-810 -0.25,-810 -0.25,-712 312.25,-712 312.25,-810"/>
<text text-anchor="middle" x="156" y="-794.8" font-family="Times New Roman,serif" font-size="14.00">Class P=0 F=1 T=ListBody</text>
<text text-anchor="middle" x="156" y="-779.8" font-family="Times New Roman,serif" font-size="14.00"> 0:(1:AttributeSection)*</text>
<text text-anchor="middle" x="156" y="-764.8" font-family="Times New Roman,serif" font-size="14.00"> &#160;2:Modifiers 3:(4:Partial)? 5:&#39;class&#39; 6:S</text>
<text text-anchor="middle" x="156" y="-749.8" font-family="Times New Roman,serif" font-size="14.00"> &#160;7:Identifier 8:s 9:(10:TypeParameters)?</text>
<text text-anchor="middle" x="156" y="-734.8" font-family="Times New Roman,serif" font-size="14.00"> &#160;11:(12:TypeBase)?</text>
<text text-anchor="middle" x="156" y="-719.8" font-family="Times New Roman,serif" font-size="14.00"> &#160;13:TypeParameterConstraintsClauses 14:TypeBody</text>
</g>
<!-- AttributeSection_Rule_1_4&#45;&gt;Class_ListBody_0_1 -->
<g id="edge6" class="edge"><title>AttributeSection_Rule_1_4&#45;&gt;Class_ListBody_0_1</title>
<path fill="none" stroke="black" d="M647.605,-857.506C551.151,-847.617 428.641,-832.224 321,-810 318.224,-809.427 315.428,-808.83 312.615,-808.213"/>
<polygon fill="black" stroke="black" points="647.443,-861.008 657.746,-858.535 648.15,-854.043 647.443,-861.008"/>
</g>
<!-- Struct_ListBody_0_1 -->
<g id="node16" class="node"><title>Struct_ListBody_0_1</title>
<polygon fill="none" stroke="black" points="643.25,-810 330.75,-810 330.75,-712 643.25,-712 643.25,-810"/>
<text text-anchor="middle" x="487" y="-794.8" font-family="Times New Roman,serif" font-size="14.00">Struct P=0 F=1 T=ListBody</text>
<text text-anchor="middle" x="487" y="-779.8" font-family="Times New Roman,serif" font-size="14.00"> 0:(1:AttributeSection)*</text>
<text text-anchor="middle" x="487" y="-764.8" font-family="Times New Roman,serif" font-size="14.00"> &#160;2:Modifiers 3:(4:Partial)? 5:&#39;struct&#39; 6:S</text>
<text text-anchor="middle" x="487" y="-749.8" font-family="Times New Roman,serif" font-size="14.00"> &#160;7:Identifier 8:s 9:(10:TypeParameters)?</text>
<text text-anchor="middle" x="487" y="-734.8" font-family="Times New Roman,serif" font-size="14.00"> &#160;11:(12:TypeBase)?</text>
<text text-anchor="middle" x="487" y="-719.8" font-family="Times New Roman,serif" font-size="14.00"> &#160;13:TypeParameterConstraintsClauses 14:TypeBody</text>
</g>
<!-- AttributeSection_Rule_1_4&#45;&gt;Struct_ListBody_0_1 -->
<g id="edge15" class="edge"><title>AttributeSection_Rule_1_4&#45;&gt;Struct_ListBody_0_1</title>
<path fill="none" stroke="black" d="M731.483,-843.248C700.93,-833.095 665.687,-821.382 631.64,-810.068"/>
<polygon fill="black" stroke="black" points="730.636,-846.655 741.23,-846.487 732.844,-840.012 730.636,-846.655"/>
</g>
<!-- Interface_ListBody_0_1 -->
<g id="node18" class="node"><title>Interface_ListBody_0_1</title>
<polygon fill="none" stroke="black" points="974.25,-810 661.75,-810 661.75,-712 974.25,-712 974.25,-810"/>
<text text-anchor="middle" x="818" y="-794.8" font-family="Times New Roman,serif" font-size="14.00">Interface P=0 F=1 T=ListBody</text>
<text text-anchor="middle" x="818" y="-779.8" font-family="Times New Roman,serif" font-size="14.00"> 0:(1:AttributeSection)*</text>
<text text-anchor="middle" x="818" y="-764.8" font-family="Times New Roman,serif" font-size="14.00"> &#160;2:Modifiers 3:(4:Partial)? 5:&#39;interface&#39; 6:S</text>
<text text-anchor="middle" x="818" y="-749.8" font-family="Times New Roman,serif" font-size="14.00"> &#160;7:Identifier 8:s 9:(10:TypeParameters)?</text>
<text text-anchor="middle" x="818" y="-734.8" font-family="Times New Roman,serif" font-size="14.00"> &#160;11:(12:TypeBase)?</text>
<text text-anchor="middle" x="818" y="-719.8" font-family="Times New Roman,serif" font-size="14.00"> &#160;13:TypeParameterConstraintsClauses 14:TypeBody</text>
</g>
<!-- AttributeSection_Rule_1_4&#45;&gt;Interface_ListBody_0_1 -->
<g id="edge18" class="edge"><title>AttributeSection_Rule_1_4&#45;&gt;Interface_ListBody_0_1</title>
<path fill="none" stroke="black" d="M818,-836.378C818,-828.057 818,-819.057 818,-810.288"/>
<polygon fill="black" stroke="black" points="814.5,-836.487 818,-846.487 821.5,-836.487 814.5,-836.487"/>
</g>
<!-- Enum_ListBody_0_1 -->
<g id="node20" class="node"><title>Enum_ListBody_0_1</title>
<polygon fill="none" stroke="black" points="1235,-795 993,-795 993,-727 1235,-727 1235,-795"/>
<text text-anchor="middle" x="1114" y="-779.8" font-family="Times New Roman,serif" font-size="14.00">Enum P=0 F=1 T=ListBody</text>
<text text-anchor="middle" x="1114" y="-764.8" font-family="Times New Roman,serif" font-size="14.00"> 0:(1:AttributeSection)*</text>
<text text-anchor="middle" x="1114" y="-749.8" font-family="Times New Roman,serif" font-size="14.00"> &#160;2:Modifiers 3:&#39;enum&#39; 4:S 5:Identifier 6:s</text>
<text text-anchor="middle" x="1114" y="-734.8" font-family="Times New Roman,serif" font-size="14.00"> &#160;7:(8:EnumBase)? 9:EnumBody</text>
</g>
<!-- AttributeSection_Rule_1_4&#45;&gt;Enum_ListBody_0_1 -->
<g id="edge21" class="edge"><title>AttributeSection_Rule_1_4&#45;&gt;Enum_ListBody_0_1</title>
<path fill="none" stroke="black" d="M896.251,-842.92C935.804,-828.222 983.972,-810.321 1024.94,-795.097"/>
<polygon fill="black" stroke="black" points="894.807,-839.723 886.652,-846.487 897.245,-846.285 894.807,-839.723"/>
</g>
<!-- Delegate_ListBody_0_1 -->
<g id="node22" class="node"><title>Delegate_ListBody_0_1</title>
<polygon fill="none" stroke="black" points="1573,-810 1253,-810 1253,-712 1573,-712 1573,-810"/>
<text text-anchor="middle" x="1413" y="-794.8" font-family="Times New Roman,serif" font-size="14.00">Delegate P=0 F=1 T=ListBody</text>
<text text-anchor="middle" x="1413" y="-779.8" font-family="Times New Roman,serif" font-size="14.00"> 0:(1:AttributeSection)*</text>
<text text-anchor="middle" x="1413" y="-764.8" font-family="Times New Roman,serif" font-size="14.00"> &#160;2:Modifiers 3:&#39;delegate&#39; 4:S 5:AnyType</text>
<text text-anchor="middle" x="1413" y="-749.8" font-family="Times New Roman,serif" font-size="14.00"> &#160;6:Identifier 7:s 8:(9:TypeParameters)? 10:&#39;(&#39;</text>
<text text-anchor="middle" x="1413" y="-734.8" font-family="Times New Roman,serif" font-size="14.00"> &#160;11:s 12:FormalParameters 13:&#39;)&#39; 14:s</text>
<text text-anchor="middle" x="1413" y="-719.8" font-family="Times New Roman,serif" font-size="14.00"> &#160;15:(16:TypeParameterConstraintsClauses)? 17:&#39;;&#39; 18:s</text>
</g>
<!-- AttributeSection_Rule_1_4&#45;&gt;Delegate_ListBody_0_1 -->
<g id="edge24" class="edge"><title>AttributeSection_Rule_1_4&#45;&gt;Delegate_ListBody_0_1</title>
<path fill="none" stroke="black" d="M988.163,-852.474C1066.5,-842.146 1160.42,-827.87 1244,-810 1246.83,-809.394 1249.69,-808.767 1252.56,-808.122"/>
<polygon fill="black" stroke="black" points="987.66,-849.01 978.198,-853.778 988.568,-855.951 987.66,-849.01"/>
</g>
<!-- Class_Rule_0_0 -->
<g id="node8" class="node"><title>Class_Rule_0_0</title>
<polygon fill="none" stroke="black" points="312.25,-676 -0.25,-676 -0.25,-578 312.25,-578 312.25,-676"/>
<text text-anchor="middle" x="156" y="-660.8" font-family="Times New Roman,serif" font-size="14.00">Class P=0 F=0 T=Rule</text>
<text text-anchor="middle" x="156" y="-645.8" font-family="Times New Roman,serif" font-size="14.00"> 0:(1:AttributeSection)*</text>
<text text-anchor="middle" x="156" y="-630.8" font-family="Times New Roman,serif" font-size="14.00"> &#160;2:Modifiers 3:(4:Partial)? 5:&#39;class&#39; 6:S</text>
<text text-anchor="middle" x="156" y="-615.8" font-family="Times New Roman,serif" font-size="14.00"> &#160;7:Identifier 8:s 9:(10:TypeParameters)?</text>
<text text-anchor="middle" x="156" y="-600.8" font-family="Times New Roman,serif" font-size="14.00"> &#160;11:(12:TypeBase)?</text>
<text text-anchor="middle" x="156" y="-585.8" font-family="Times New Roman,serif" font-size="14.00"> &#160;13:TypeParameterConstraintsClauses 14:TypeBody</text>
</g>
<!-- Class_ListBody_0_1&#45;&gt;Class_Rule_0_0 -->
<g id="edge7" class="edge"><title>Class_ListBody_0_1&#45;&gt;Class_Rule_0_0</title>
<path fill="none" stroke="black" d="M156,-701.708C156,-693.191 156,-684.5 156,-676.214"/>
<polygon fill="black" stroke="black" points="152.5,-701.972 156,-711.972 159.5,-701.972 152.5,-701.972"/>
</g>
<!-- TypeDeclaration_Prefix_0_0 -->
<g id="node9" class="node"><title>TypeDeclaration_Prefix_0_0</title>
<polygon fill="none" stroke="black" points="926.25,-542 709.75,-542 709.75,-504 926.25,-504 926.25,-542"/>
<text text-anchor="middle" x="818" y="-526.8" font-family="Times New Roman,serif" font-size="14.00">TypeDeclaration P=0 F=0 T=Prefix</text>
<text text-anchor="middle" x="818" y="-511.8" font-family="Times New Roman,serif" font-size="14.00"> TypeDeclaration</text>
</g>
<!-- Class_Rule_0_0&#45;&gt;TypeDeclaration_Prefix_0_0 -->
<g id="edge8" class="edge"><title>Class_Rule_0_0&#45;&gt;TypeDeclaration_Prefix_0_0</title>
<path fill="none" stroke="black" d="M322.524,-577.782C460.62,-551.095 610.691,-537.306 709.56,-530.301"/>
<polygon fill="black" stroke="black" points="321.743,-574.369 312.602,-579.726 323.089,-581.238 321.743,-574.369"/>
</g>
<!-- TypeDeclaration_Extensible_0_0 -->
<g id="node10" class="node"><title>TypeDeclaration_Extensible_0_0</title>
<polygon fill="none" stroke="black" points="938.25,-468 697.75,-468 697.75,-430 938.25,-430 938.25,-468"/>
<text text-anchor="middle" x="818" y="-452.8" font-family="Times New Roman,serif" font-size="14.00">TypeDeclaration P=0 F=0 T=Extensible</text>
<text text-anchor="middle" x="818" y="-437.8" font-family="Times New Roman,serif" font-size="14.00"> TypeDeclaration</text>
</g>
<!-- TypeDeclaration_Prefix_0_0&#45;&gt;TypeDeclaration_Extensible_0_0 -->
<g id="edge9" class="edge"><title>TypeDeclaration_Prefix_0_0&#45;&gt;TypeDeclaration_Extensible_0_0</title>
<path fill="none" stroke="black" d="M818,-493.573C818,-485.108 818,-476.059 818,-468.413"/>
<polygon fill="black" stroke="black" points="814.5,-493.831 818,-503.831 821.5,-493.831 814.5,-493.831"/>
</g>
<!-- Type_Rule_0_0 -->
<g id="node11" class="node"><title>Type_Rule_0_0</title>
<polygon fill="none" stroke="black" points="891,-394 745,-394 745,-356 891,-356 891,-394"/>
<text text-anchor="middle" x="818" y="-378.8" font-family="Times New Roman,serif" font-size="14.00">Type P=0 F=0 T=Rule</text>
<text text-anchor="middle" x="818" y="-363.8" font-family="Times New Roman,serif" font-size="14.00"> 0:TypeDeclaration</text>
</g>
<!-- TypeDeclaration_Extensible_0_0&#45;&gt;Type_Rule_0_0 -->
<g id="edge10" class="edge"><title>TypeDeclaration_Extensible_0_0&#45;&gt;Type_Rule_0_0</title>
<path fill="none" stroke="black" d="M818,-419.573C818,-411.108 818,-402.059 818,-394.413"/>
<polygon fill="black" stroke="black" points="814.5,-419.831 818,-429.831 821.5,-419.831 814.5,-419.831"/>
</g>
<!-- NamespaceMemberDeclaration_Prefix_0_0 -->
<g id="node12" class="node"><title>NamespaceMemberDeclaration_Prefix_0_0</title>
<polygon fill="none" stroke="black" points="967.25,-320 668.75,-320 668.75,-282 967.25,-282 967.25,-320"/>
<text text-anchor="middle" x="818" y="-304.8" font-family="Times New Roman,serif" font-size="14.00">NamespaceMemberDeclaration P=0 F=0 T=Prefix</text>
<text text-anchor="middle" x="818" y="-289.8" font-family="Times New Roman,serif" font-size="14.00"> NamespaceMemberDeclaration</text>
</g>
<!-- Type_Rule_0_0&#45;&gt;NamespaceMemberDeclaration_Prefix_0_0 -->
<g id="edge11" class="edge"><title>Type_Rule_0_0&#45;&gt;NamespaceMemberDeclaration_Prefix_0_0</title>
<path fill="none" stroke="black" d="M818,-345.573C818,-337.108 818,-328.059 818,-320.413"/>
<polygon fill="black" stroke="black" points="814.5,-345.831 818,-355.831 821.5,-345.831 814.5,-345.831"/>
</g>
<!-- NamespaceMemberDeclaration_Extensible_0_0 -->
<g id="node13" class="node"><title>NamespaceMemberDeclaration_Extensible_0_0</title>
<polygon fill="none" stroke="black" points="979.25,-246 656.75,-246 656.75,-208 979.25,-208 979.25,-246"/>
<text text-anchor="middle" x="818" y="-230.8" font-family="Times New Roman,serif" font-size="14.00">NamespaceMemberDeclaration P=0 F=0 T=Extensible</text>
<text text-anchor="middle" x="818" y="-215.8" font-family="Times New Roman,serif" font-size="14.00"> NamespaceMemberDeclaration</text>
</g>
<!-- NamespaceMemberDeclaration_Prefix_0_0&#45;&gt;NamespaceMemberDeclaration_Extensible_0_0 -->
<g id="edge12" class="edge"><title>NamespaceMemberDeclaration_Prefix_0_0&#45;&gt;NamespaceMemberDeclaration_Extensible_0_0</title>
<path fill="none" stroke="black" d="M818,-271.573C818,-263.108 818,-254.059 818,-246.413"/>
<polygon fill="black" stroke="black" points="814.5,-271.831 818,-281.831 821.5,-271.831 814.5,-271.831"/>
</g>
<!-- CompilationUnit_ListBody_0_8 -->
<g id="node14" class="node"><title>CompilationUnit_ListBody_0_8</title>
<polygon fill="none" stroke="black" points="972,-172 664,-172 664,-104 972,-104 972,-172"/>
<text text-anchor="middle" x="818" y="-156.8" font-family="Times New Roman,serif" font-size="14.00">CompilationUnit P=0 F=8 T=ListBody</text>
<text text-anchor="middle" x="818" y="-141.8" font-family="Times New Roman,serif" font-size="14.00"> 0:s 1:(2:ExternAliasDirective)*</text>
<text text-anchor="middle" x="818" y="-126.8" font-family="Times New Roman,serif" font-size="14.00"> &#160;3:(4:UsingDirective)* 5:(6:GlobalAttributeSection)*</text>
<text text-anchor="middle" x="818" y="-111.8" font-family="Times New Roman,serif" font-size="14.00"> &#160;7:(8:NamespaceMemberDeclaration)* 10:&lt;empty&gt;</text>
</g>
<!-- NamespaceMemberDeclaration_Extensible_0_0&#45;&gt;CompilationUnit_ListBody_0_8 -->
<g id="edge13" class="edge"><title>NamespaceMemberDeclaration_Extensible_0_0&#45;&gt;CompilationUnit_ListBody_0_8</title>
<path fill="none" stroke="black" d="M818,-197.8C818,-189.608 818,-180.588 818,-172.124"/>
<polygon fill="black" stroke="black" points="814.5,-197.974 818,-207.974 821.5,-197.974 814.5,-197.974"/>
</g>
<!-- CompilationUnit_Rule_0_7 -->
<g id="node15" class="node"><title>CompilationUnit_Rule_0_7</title>
<polygon fill="none" stroke="black" points="972,-68 664,-68 664,-0 972,-0 972,-68"/>
<text text-anchor="middle" x="818" y="-52.8" font-family="Times New Roman,serif" font-size="14.00">CompilationUnit P=0 F=7 T=Rule</text>
<text text-anchor="middle" x="818" y="-37.8" font-family="Times New Roman,serif" font-size="14.00"> 0:s 1:(2:ExternAliasDirective)*</text>
<text text-anchor="middle" x="818" y="-22.8" font-family="Times New Roman,serif" font-size="14.00"> &#160;3:(4:UsingDirective)* 5:(6:GlobalAttributeSection)*</text>
<text text-anchor="middle" x="818" y="-7.8" font-family="Times New Roman,serif" font-size="14.00"> &#160;7:(8:NamespaceMemberDeclaration)* 10:&lt;empty&gt;</text>
</g>
<!-- CompilationUnit_ListBody_0_8&#45;&gt;CompilationUnit_Rule_0_7 -->
<g id="edge14" class="edge"><title>CompilationUnit_ListBody_0_8&#45;&gt;CompilationUnit_Rule_0_7</title>
<path fill="none" stroke="black" d="M818,-93.7197C818,-85.2142 818,-76.4154 818,-68.2994"/>
<polygon fill="black" stroke="black" points="814.5,-93.8835 818,-103.884 821.5,-93.8836 814.5,-93.8835"/>
</g>
<!-- Struct_Rule_0_0 -->
<g id="node17" class="node"><title>Struct_Rule_0_0</title>
<polygon fill="none" stroke="black" points="643.25,-676 330.75,-676 330.75,-578 643.25,-578 643.25,-676"/>
<text text-anchor="middle" x="487" y="-660.8" font-family="Times New Roman,serif" font-size="14.00">Struct P=0 F=0 T=Rule</text>
<text text-anchor="middle" x="487" y="-645.8" font-family="Times New Roman,serif" font-size="14.00"> 0:(1:AttributeSection)*</text>
<text text-anchor="middle" x="487" y="-630.8" font-family="Times New Roman,serif" font-size="14.00"> &#160;2:Modifiers 3:(4:Partial)? 5:&#39;struct&#39; 6:S</text>
<text text-anchor="middle" x="487" y="-615.8" font-family="Times New Roman,serif" font-size="14.00"> &#160;7:Identifier 8:s 9:(10:TypeParameters)?</text>
<text text-anchor="middle" x="487" y="-600.8" font-family="Times New Roman,serif" font-size="14.00"> &#160;11:(12:TypeBase)?</text>
<text text-anchor="middle" x="487" y="-585.8" font-family="Times New Roman,serif" font-size="14.00"> &#160;13:TypeParameterConstraintsClauses 14:TypeBody</text>
</g>
<!-- Struct_ListBody_0_1&#45;&gt;Struct_Rule_0_0 -->
<g id="edge16" class="edge"><title>Struct_ListBody_0_1&#45;&gt;Struct_Rule_0_0</title>
<path fill="none" stroke="black" d="M487,-701.708C487,-693.191 487,-684.5 487,-676.214"/>
<polygon fill="black" stroke="black" points="483.5,-701.972 487,-711.972 490.5,-701.972 483.5,-701.972"/>
</g>
<!-- Struct_Rule_0_0&#45;&gt;TypeDeclaration_Prefix_0_0 -->
<g id="edge17" class="edge"><title>Struct_Rule_0_0&#45;&gt;TypeDeclaration_Prefix_0_0</title>
<path fill="none" stroke="black" d="M652.564,-574.98C690.958,-563.149 729.347,-551.319 759.467,-542.037"/>
<polygon fill="black" stroke="black" points="651.333,-571.697 642.808,-577.987 653.395,-578.387 651.333,-571.697"/>
</g>
<!-- Interface_Rule_0_0 -->
<g id="node19" class="node"><title>Interface_Rule_0_0</title>
<polygon fill="none" stroke="black" points="974.25,-676 661.75,-676 661.75,-578 974.25,-578 974.25,-676"/>
<text text-anchor="middle" x="818" y="-660.8" font-family="Times New Roman,serif" font-size="14.00">Interface P=0 F=0 T=Rule</text>
<text text-anchor="middle" x="818" y="-645.8" font-family="Times New Roman,serif" font-size="14.00"> 0:(1:AttributeSection)*</text>
<text text-anchor="middle" x="818" y="-630.8" font-family="Times New Roman,serif" font-size="14.00"> &#160;2:Modifiers 3:(4:Partial)? 5:&#39;interface&#39; 6:S</text>
<text text-anchor="middle" x="818" y="-615.8" font-family="Times New Roman,serif" font-size="14.00"> &#160;7:Identifier 8:s 9:(10:TypeParameters)?</text>
<text text-anchor="middle" x="818" y="-600.8" font-family="Times New Roman,serif" font-size="14.00"> &#160;11:(12:TypeBase)?</text>
<text text-anchor="middle" x="818" y="-585.8" font-family="Times New Roman,serif" font-size="14.00"> &#160;13:TypeParameterConstraintsClauses 14:TypeBody</text>
</g>
<!-- Interface_ListBody_0_1&#45;&gt;Interface_Rule_0_0 -->
<g id="edge19" class="edge"><title>Interface_ListBody_0_1&#45;&gt;Interface_Rule_0_0</title>
<path fill="none" stroke="black" d="M818,-701.708C818,-693.191 818,-684.5 818,-676.214"/>
<polygon fill="black" stroke="black" points="814.5,-701.972 818,-711.972 821.5,-701.972 814.5,-701.972"/>
</g>
<!-- Interface_Rule_0_0&#45;&gt;TypeDeclaration_Prefix_0_0 -->
<g id="edge20" class="edge"><title>Interface_Rule_0_0&#45;&gt;TypeDeclaration_Prefix_0_0</title>
<path fill="none" stroke="black" d="M818,-567.783C818,-558.442 818,-549.431 818,-542.037"/>
<polygon fill="black" stroke="black" points="814.5,-567.987 818,-577.987 821.5,-567.987 814.5,-567.987"/>
</g>
<!-- Enum_Rule_0_0 -->
<g id="node21" class="node"><title>Enum_Rule_0_0</title>
<polygon fill="none" stroke="black" points="1235,-661 993,-661 993,-593 1235,-593 1235,-661"/>
<text text-anchor="middle" x="1114" y="-645.8" font-family="Times New Roman,serif" font-size="14.00">Enum P=0 F=0 T=Rule</text>
<text text-anchor="middle" x="1114" y="-630.8" font-family="Times New Roman,serif" font-size="14.00"> 0:(1:AttributeSection)*</text>
<text text-anchor="middle" x="1114" y="-615.8" font-family="Times New Roman,serif" font-size="14.00"> &#160;2:Modifiers 3:&#39;enum&#39; 4:S 5:Identifier 6:s</text>
<text text-anchor="middle" x="1114" y="-600.8" font-family="Times New Roman,serif" font-size="14.00"> &#160;7:(8:EnumBase)? 9:EnumBody</text>
</g>
<!-- Enum_ListBody_0_1&#45;&gt;Enum_Rule_0_0 -->
<g id="edge22" class="edge"><title>Enum_ListBody_0_1&#45;&gt;Enum_Rule_0_0</title>
<path fill="none" stroke="black" d="M1114,-716.456C1114,-698.499 1114,-678.024 1114,-661.299"/>
<polygon fill="black" stroke="black" points="1110.5,-716.691 1114,-726.691 1117.5,-716.691 1110.5,-716.691"/>
</g>
<!-- Enum_Rule_0_0&#45;&gt;TypeDeclaration_Prefix_0_0 -->
<g id="edge23" class="edge"><title>Enum_Rule_0_0&#45;&gt;TypeDeclaration_Prefix_0_0</title>
<path fill="none" stroke="black" d="M1015.43,-589.466C1004.51,-585.541 993.532,-581.652 983,-578 947.118,-565.559 906.586,-552.283 874.674,-542.008"/>
<polygon fill="black" stroke="black" points="1014.41,-592.818 1025.01,-592.918 1016.79,-586.233 1014.41,-592.818"/>
</g>
<!-- Delegate_Rule_0_0 -->
<g id="node23" class="node"><title>Delegate_Rule_0_0</title>
<polygon fill="none" stroke="black" points="1573,-676 1253,-676 1253,-578 1573,-578 1573,-676"/>
<text text-anchor="middle" x="1413" y="-660.8" font-family="Times New Roman,serif" font-size="14.00">Delegate P=0 F=0 T=Rule</text>
<text text-anchor="middle" x="1413" y="-645.8" font-family="Times New Roman,serif" font-size="14.00"> 0:(1:AttributeSection)*</text>
<text text-anchor="middle" x="1413" y="-630.8" font-family="Times New Roman,serif" font-size="14.00"> &#160;2:Modifiers 3:&#39;delegate&#39; 4:S 5:AnyType</text>
<text text-anchor="middle" x="1413" y="-615.8" font-family="Times New Roman,serif" font-size="14.00"> &#160;6:Identifier 7:s 8:(9:TypeParameters)? 10:&#39;(&#39;</text>
<text text-anchor="middle" x="1413" y="-600.8" font-family="Times New Roman,serif" font-size="14.00"> &#160;11:s 12:FormalParameters 13:&#39;)&#39; 14:s</text>
<text text-anchor="middle" x="1413" y="-585.8" font-family="Times New Roman,serif" font-size="14.00"> &#160;15:(16:TypeParameterConstraintsClauses)? 17:&#39;;&#39; 18:s</text>
</g>
<!-- Delegate_ListBody_0_1&#45;&gt;Delegate_Rule_0_0 -->
<g id="edge25" class="edge"><title>Delegate_ListBody_0_1&#45;&gt;Delegate_Rule_0_0</title>
<path fill="none" stroke="black" d="M1413,-701.708C1413,-693.191 1413,-684.5 1413,-676.214"/>
<polygon fill="black" stroke="black" points="1409.5,-701.972 1413,-711.972 1416.5,-701.972 1409.5,-701.972"/>
</g>
<!-- Delegate_Rule_0_0&#45;&gt;TypeDeclaration_Prefix_0_0 -->
<g id="edge26" class="edge"><title>Delegate_Rule_0_0&#45;&gt;TypeDeclaration_Prefix_0_0</title>
<path fill="none" stroke="black" d="M1242.74,-577.818C1130,-555.333 1010.5,-541.386 926.41,-533.195"/>
<polygon fill="black" stroke="black" points="1242.08,-581.256 1252.58,-579.806 1243.47,-574.395 1242.08,-581.256"/>
</g>
<!-- Argument_Rule_3_1 -->
<g id="node24" class="node"><title>Argument_Rule_3_1</title>
<polygon fill="beige" stroke="beige" points="671.25,-1629.5 414.75,-1629.5 414.75,-1576.5 671.25,-1576.5 671.25,-1629.5"/>
<text text-anchor="middle" x="543" y="-1614.3" font-family="Times New Roman,serif" font-size="14.00">Argument P=3 F=1 T=Rule</text>
<text text-anchor="middle" x="543" y="-1599.3" font-family="Times New Roman,serif" font-size="14.00"> 0:(1:ArgumentName 2:s)?</text>
<text text-anchor="middle" x="543" y="-1584.3" font-family="Times New Roman,serif" font-size="14.00"> &#160;3:(4:ArgumentModfier 5:s )? 6:Expression</text>
</g>
<!-- Argument_Rule_3_0 -->
<g id="node25" class="node"><title>Argument_Rule_3_0</title>
<polygon fill="beige" stroke="beige" points="671.25,-1539.5 414.75,-1539.5 414.75,-1486.5 671.25,-1486.5 671.25,-1539.5"/>
<text text-anchor="middle" x="543" y="-1524.3" font-family="Times New Roman,serif" font-size="14.00">Argument P=3 F=0 T=Rule</text>
<text text-anchor="middle" x="543" y="-1509.3" font-family="Times New Roman,serif" font-size="14.00"> 0:(1:ArgumentName 2:s)?</text>
<text text-anchor="middle" x="543" y="-1494.3" font-family="Times New Roman,serif" font-size="14.00"> &#160;3:(4:ArgumentModfier 5:s )? 6:Expression</text>
</g>
<!-- Argument_Rule_3_1&#45;&gt;Argument_Rule_3_0 -->
<g id="edge27" class="edge"><title>Argument_Rule_3_1&#45;&gt;Argument_Rule_3_0</title>
<path fill="none" stroke="black" d="M543,-1566.02C543,-1557.22 543,-1547.96 543,-1539.74"/>
<polygon fill="black" stroke="black" points="539.5,-1566.07 543,-1576.07 546.5,-1566.07 539.5,-1566.07"/>
</g>
<!-- ArgumentList_ListBody_3_1 -->
<g id="node26" class="node"><title>ArgumentList_ListBody_3_1</title>
<polygon fill="none" stroke="black" points="927.25,-1450 708.75,-1450 708.75,-1412 927.25,-1412 927.25,-1450"/>
<text text-anchor="middle" x="818" y="-1434.8" font-family="Times New Roman,serif" font-size="14.00">ArgumentList P=3 F=1 T=ListBody</text>
<text text-anchor="middle" x="818" y="-1419.8" font-family="Times New Roman,serif" font-size="14.00"> 0:(1:Argument; 2:&#39;,&#39; 3:s )*</text>
</g>
<!-- Argument_Rule_3_0&#45;&gt;ArgumentList_ListBody_3_1 -->
<g id="edge28" class="edge"><title>Argument_Rule_3_0&#45;&gt;ArgumentList_ListBody_3_1</title>
<path fill="none" stroke="black" d="M640.425,-1483.66C678.827,-1472.49 721.8,-1459.99 755.852,-1450.08"/>
<polygon fill="black" stroke="black" points="639.392,-1480.31 630.768,-1486.47 641.347,-1487.03 639.392,-1480.31"/>
</g>
<!-- ArgumentList_Rule_3_0 -->
<g id="node27" class="node"><title>ArgumentList_Rule_3_0</title>
<polygon fill="none" stroke="black" points="914.25,-1376 721.75,-1376 721.75,-1338 914.25,-1338 914.25,-1376"/>
<text text-anchor="middle" x="818" y="-1360.8" font-family="Times New Roman,serif" font-size="14.00">ArgumentList P=3 F=0 T=Rule</text>
<text text-anchor="middle" x="818" y="-1345.8" font-family="Times New Roman,serif" font-size="14.00"> 0:(1:Argument; 2:&#39;,&#39; 3:s )*</text>
</g>
<!-- ArgumentList_ListBody_3_1&#45;&gt;ArgumentList_Rule_3_0 -->
<g id="edge29" class="edge"><title>ArgumentList_ListBody_3_1&#45;&gt;ArgumentList_Rule_3_0</title>
<path fill="none" stroke="black" d="M818,-1401.57C818,-1393.11 818,-1384.06 818,-1376.41"/>
<polygon fill="black" stroke="black" points="814.5,-1401.83 818,-1411.83 821.5,-1401.83 814.5,-1401.83"/>
</g>
<!-- AttributeArguments_Rule_3_2 -->
<g id="node28" class="node"><title>AttributeArguments_Rule_3_2</title>
<polygon fill="none" stroke="black" points="931.25,-1302 704.75,-1302 704.75,-1264 931.25,-1264 931.25,-1302"/>
<text text-anchor="middle" x="818" y="-1286.8" font-family="Times New Roman,serif" font-size="14.00">AttributeArguments P=3 F=2 T=Rule</text>
<text text-anchor="middle" x="818" y="-1271.8" font-family="Times New Roman,serif" font-size="14.00"> 0:&#39;(&#39; 1:s 2:ArgumentList 3:&#39;)&#39; 4:s</text>
</g>
<!-- ArgumentList_Rule_3_0&#45;&gt;AttributeArguments_Rule_3_2 -->
<g id="edge30" class="edge"><title>ArgumentList_Rule_3_0&#45;&gt;AttributeArguments_Rule_3_2</title>
<path fill="none" stroke="black" d="M818,-1327.57C818,-1319.11 818,-1310.06 818,-1302.41"/>
<polygon fill="black" stroke="black" points="814.5,-1327.83 818,-1337.83 821.5,-1327.83 814.5,-1327.83"/>
</g>
<!-- AttributeArguments_Rule_3_2&#45;&gt;Attribute_Rule_2_3 -->
<g id="edge31" class="edge"><title>AttributeArguments_Rule_3_2&#45;&gt;Attribute_Rule_2_3</title>
<path fill="none" stroke="black" d="M818,-1253.66C818,-1245.19 818,-1235.95 818,-1227.66"/>
<polygon fill="black" stroke="black" points="814.5,-1253.85 818,-1263.85 821.5,-1253.85 814.5,-1253.85"/>
</g>
<!-- Argument_Rule_3_4 -->
<g id="node29" class="node"><title>Argument_Rule_3_4</title>
<polygon fill="#ff4040" stroke="#ff4040" points="946.25,-1629.5 689.75,-1629.5 689.75,-1576.5 946.25,-1576.5 946.25,-1629.5"/>
<text text-anchor="middle" x="818" y="-1614.3" font-family="Times New Roman,serif" font-size="14.00">Argument P=3 F=4 T=Rule</text>
<text text-anchor="middle" x="818" y="-1599.3" font-family="Times New Roman,serif" font-size="14.00"> 0:(1:ArgumentName 2:s)?</text>
<text text-anchor="middle" x="818" y="-1584.3" font-family="Times New Roman,serif" font-size="14.00"> &#160;3:(4:ArgumentModfier 5:s )? 6:Expression</text>
</g>
<!-- Argument_Rule_3_3 -->
<g id="node30" class="node"><title>Argument_Rule_3_3</title>
<polygon fill="#ff4040" stroke="#ff4040" points="946.25,-1539.5 689.75,-1539.5 689.75,-1486.5 946.25,-1486.5 946.25,-1539.5"/>
<text text-anchor="middle" x="818" y="-1524.3" font-family="Times New Roman,serif" font-size="14.00">Argument P=3 F=3 T=Rule</text>
<text text-anchor="middle" x="818" y="-1509.3" font-family="Times New Roman,serif" font-size="14.00"> 0:(1:ArgumentName 2:s)?</text>
<text text-anchor="middle" x="818" y="-1494.3" font-family="Times New Roman,serif" font-size="14.00"> &#160;3:(4:ArgumentModfier 5:s )? 6:Expression</text>
</g>
<!-- Argument_Rule_3_4&#45;&gt;Argument_Rule_3_3 -->
<g id="edge32" class="edge"><title>Argument_Rule_3_4&#45;&gt;Argument_Rule_3_3</title>
<path fill="none" stroke="black" d="M818,-1566.02C818,-1557.22 818,-1547.96 818,-1539.74"/>
<polygon fill="black" stroke="black" points="814.5,-1566.07 818,-1576.07 821.5,-1566.07 814.5,-1566.07"/>
</g>
<!-- Argument_Rule_3_3&#45;&gt;ArgumentList_ListBody_3_1 -->
<g id="edge33" class="edge"><title>Argument_Rule_3_3&#45;&gt;ArgumentList_ListBody_3_1</title>
<path fill="none" stroke="black" d="M818,-1476.04C818,-1467.16 818,-1458 818,-1450.35"/>
<polygon fill="black" stroke="black" points="814.5,-1476.25 818,-1486.25 821.5,-1476.25 814.5,-1476.25"/>
</g>
<!-- Expression_Prefix_3_0 -->
<g id="node31" class="node"><title>Expression_Prefix_3_0</title>
<polygon fill="#ffd39b" stroke="#ffd39b" points="1186.25,-1704 999.75,-1704 999.75,-1666 1186.25,-1666 1186.25,-1704"/>
<text text-anchor="middle" x="1093" y="-1688.8" font-family="Times New Roman,serif" font-size="14.00">Expression P=3 F=0 T=Prefix</text>
<text text-anchor="middle" x="1093" y="-1673.8" font-family="Times New Roman,serif" font-size="14.00"> Expression</text>
</g>
<!-- Expression_Extensible_3_0 -->
<g id="node32" class="node"><title>Expression_Extensible_3_0</title>
<polygon fill="#ffd39b" stroke="#ffd39b" points="1198.25,-1622 987.75,-1622 987.75,-1584 1198.25,-1584 1198.25,-1622"/>
<text text-anchor="middle" x="1093" y="-1606.8" font-family="Times New Roman,serif" font-size="14.00">Expression P=3 F=0 T=Extensible</text>
<text text-anchor="middle" x="1093" y="-1591.8" font-family="Times New Roman,serif" font-size="14.00"> Expression</text>
</g>
<!-- Expression_Prefix_3_0&#45;&gt;Expression_Extensible_3_0 -->
<g id="edge34" class="edge"><title>Expression_Prefix_3_0&#45;&gt;Expression_Extensible_3_0</title>
<path fill="none" stroke="black" d="M1093,-1655.67C1093,-1644.5 1093,-1631.99 1093,-1622.08"/>
<polygon fill="black" stroke="black" points="1089.5,-1655.85 1093,-1665.85 1096.5,-1655.85 1089.5,-1655.85"/>
</g>
<!-- Argument_Rule_3_6 -->
<g id="node33" class="node"><title>Argument_Rule_3_6</title>
<polygon fill="#ffd39b" stroke="#ffd39b" points="1221.25,-1539.5 964.75,-1539.5 964.75,-1486.5 1221.25,-1486.5 1221.25,-1539.5"/>
<text text-anchor="middle" x="1093" y="-1524.3" font-family="Times New Roman,serif" font-size="14.00">Argument P=3 F=6 T=Rule</text>
<text text-anchor="middle" x="1093" y="-1509.3" font-family="Times New Roman,serif" font-size="14.00"> 0:(1:ArgumentName 2:s)?</text>
<text text-anchor="middle" x="1093" y="-1494.3" font-family="Times New Roman,serif" font-size="14.00"> &#160;3:(4:ArgumentModfier 5:s )? 6:Expression</text>
</g>
<!-- Expression_Extensible_3_0&#45;&gt;Argument_Rule_3_6 -->
<g id="edge35" class="edge"><title>Expression_Extensible_3_0&#45;&gt;Argument_Rule_3_6</title>
<path fill="none" stroke="black" d="M1093,-1573.45C1093,-1562.54 1093,-1550.17 1093,-1539.55"/>
<polygon fill="black" stroke="black" points="1089.5,-1573.77 1093,-1583.77 1096.5,-1573.77 1089.5,-1573.77"/>
</g>
<!-- Argument_Rule_3_6&#45;&gt;ArgumentList_ListBody_3_1 -->
<g id="edge36" class="edge"><title>Argument_Rule_3_6&#45;&gt;ArgumentList_ListBody_3_1</title>
<path fill="none" stroke="black" d="M995.575,-1483.66C957.173,-1472.49 914.2,-1459.99 880.148,-1450.08"/>
<polygon fill="black" stroke="black" points="994.653,-1487.03 1005.23,-1486.47 996.608,-1480.31 994.653,-1487.03"/>
</g>
<!-- AttributeArguments_Rule_3_3 -->
<g id="node34" class="node"><title>AttributeArguments_Rule_3_3</title>
<polygon fill="#98f5ff" stroke="#98f5ff" points="1176.25,-1302 949.75,-1302 949.75,-1264 1176.25,-1264 1176.25,-1302"/>
<text text-anchor="middle" x="1063" y="-1286.8" font-family="Times New Roman,serif" font-size="14.00">AttributeArguments P=3 F=3 T=Rule</text>
<text text-anchor="middle" x="1063" y="-1271.8" font-family="Times New Roman,serif" font-size="14.00"> 0:&#39;(&#39; 1:s 2:ArgumentList 3:&#39;)&#39; 4:s</text>
</g>
<!-- AttributeArguments_Rule_3_3&#45;&gt;Attribute_Rule_2_3 -->
<g id="edge37" class="edge"><title>AttributeArguments_Rule_3_3&#45;&gt;Attribute_Rule_2_3</title>
<path fill="none" stroke="black" d="M997.824,-1260.72C966.634,-1250.53 929.042,-1238.26 896.311,-1227.57"/>
<polygon fill="black" stroke="black" points="997.119,-1264.17 1007.71,-1263.95 999.292,-1257.52 997.119,-1264.17"/>
</g>
</g>
</svg>
